<?xml version="1.0" standalone="no"?>
<!DOCTYPE svg PUBLIC "-//W3C//DTD SVG 20010904//EN"
 "http://www.w3.org/TR/2001/REC-SVG-20010904/DTD/svg10.dtd">
<svg version="1.0" xmlns="http://www.w3.org/2000/svg"
 width="512.000000pt" height="512.000000pt" viewBox="0 0 512.000000 512.000000"
 preserveAspectRatio="xMidYMid meet">

<g transform="translate(0.000000,512.000000) scale(0.100000,-0.100000)"
fill="#000000" stroke="none">
<path d="M522 5110 c-28 -12 -42 -47 -42 -106 l0 -44 -47 0 c-27 0 -59 -6 -72
-13 -32 -16 -46 -60 -31 -96 14 -35 47 -51 105 -51 l45 0 0 -45 c0 -58 16 -91
51 -106 22 -9 36 -9 58 0 35 15 51 48 51 106 l0 45 45 0 c58 0 91 16 106 51 9
22 9 36 0 58 -15 35 -48 51 -106 51 l-45 0 0 45 c0 55 -15 90 -47 104 -28 13
-40 13 -71 1z"/>
<path d="M1962 4950 c-28 -12 -42 -47 -42 -106 l0 -44 -47 0 c-27 0 -59 -6
-72 -13 -32 -16 -46 -60 -31 -96 14 -35 47 -51 105 -51 l45 0 0 -45 c0 -58 16
-91 51 -106 22 -9 36 -9 58 0 35 15 51 48 51 106 l0 45 45 0 c58 0 91 16 106
51 9 22 9 36 0 58 -15 35 -48 51 -106 51 l-45 0 0 45 c0 55 -15 90 -47 104
-28 13 -40 13 -71 1z"/>
<path d="M3965 4690 c-127 -61 -238 -120 -247 -131 -26 -30 -22 -55 17 -138
20 -41 34 -78 32 -84 -1 -5 -282 -143 -622 -306 -688 -329 -660 -311 -630
-393 9 -24 19 -50 21 -58 4 -11 -162 -95 -687 -345 -386 -185 -697 -339 -705
-350 -22 -30 -17 -59 23 -140 24 -48 34 -78 28 -84 -6 -5 -165 -84 -355 -174
l-344 -164 -21 31 c-41 60 -56 58 -242 -30 -92 -43 -175 -88 -185 -98 -10 -11
-18 -31 -18 -45 0 -37 376 -821 406 -848 14 -13 33 -23 42 -23 26 0 334 148
360 173 23 21 26 56 11 106 -3 10 88 58 306 163 171 82 329 158 353 168 l43
19 41 -84 c39 -78 65 -105 101 -105 7 0 84 34 171 75 87 41 162 75 166 75 4 0
13 -13 19 -28 10 -24 8 -34 -16 -78 -25 -44 -28 -61 -31 -162 -3 -72 0 -123 8
-141 12 -31 47 -51 87 -51 20 0 24 -4 19 -18 -4 -9 -59 -153 -124 -319 -104
-269 -119 -303 -139 -303 -84 0 -121 -84 -62 -139 l22 -20 -107 -273 c-58
-151 -106 -279 -106 -285 0 -54 60 -94 109 -73 34 14 36 19 176 380 48 124 90
231 92 238 4 9 56 12 214 12 l209 0 0 -285 c0 -190 4 -292 11 -309 26 -55 112
-55 138 0 7 17 11 119 11 309 l0 285 209 0 c158 0 210 -3 214 -12 2 -7 44
-114 92 -238 140 -361 142 -366 176 -380 49 -21 109 19 109 73 0 6 -48 135
-107 285 l-106 273 21 19 c58 54 21 140 -61 140 -20 0 -35 33 -139 303 -65
166 -120 310 -124 319 -5 14 -1 18 19 18 40 0 75 20 87 51 8 18 11 69 8 141
-3 101 -6 118 -32 164 -27 49 -27 53 -12 82 9 17 23 62 32 99 24 102 11 207
-41 326 -6 14 8 24 89 62 52 25 98 45 101 45 2 0 16 -22 29 -49 26 -50 40 -61
81 -61 13 0 301 133 641 295 339 162 618 294 619 293 2 -2 21 -40 44 -85 39
-80 61 -103 96 -103 28 0 479 219 498 241 9 12 17 31 17 42 0 31 -837 1779
-861 1800 -12 9 -31 17 -43 17 -12 0 -125 -50 -251 -110z m560 -822 c193 -403
350 -737 350 -742 0 -22 -80 -29 -137 -12 -111 32 -104 20 -448 740 -170 358
-310 653 -310 656 0 8 168 88 185 89 6 1 168 -328 360 -731z m-410 -246 c145
-304 266 -561 270 -571 4 -15 -81 -59 -566 -290 -314 -150 -574 -270 -577
-266 -7 6 -550 1139 -548 1142 6 8 1134 542 1144 540 7 -1 131 -251 277 -555z
m-1453 -299 c25 -54 116 -245 202 -425 86 -180 156 -331 156 -335 0 -4 -51
-32 -114 -61 l-113 -54 -44 31 c-72 48 -146 73 -235 78 -141 10 -256 -32 -358
-128 -98 -92 -156 -212 -156 -322 l0 -38 -132 -64 c-73 -34 -136 -60 -139 -56
-17 16 -410 856 -403 858 5 2 295 140 644 308 349 167 638 304 641 305 3 0 26
-44 51 -97z m-1309 -980 c43 -91 77 -167 75 -168 -2 -1 -86 -42 -188 -91
l-185 -89 -90 0 c-74 0 -98 5 -137 24 -59 29 -116 85 -150 148 l-27 48 307
147 c169 81 309 147 312 147 3 0 40 -74 83 -166z m1255 27 c63 -28 136 -101
163 -164 29 -66 32 -171 6 -238 l-19 -48 -99 0 -99 0 0 55 c0 67 -29 105 -80
105 -51 0 -80 -38 -80 -105 l0 -55 -99 0 -99 0 -18 47 c-12 30 -18 74 -18 118
0 225 235 376 442 285z m-2099 -459 c78 -162 141 -296 141 -298 0 -12 -59 1
-92 20 -38 20 -48 38 -145 237 -109 223 -138 289 -132 294 7 6 84 44 85 43 1
-1 65 -134 143 -296z m2260 -175 c12 -11 21 -27 21 -38 0 -17 -11 -18 -165
-18 -126 0 -174 4 -202 15 -40 17 -73 43 -73 57 0 6 82 8 199 6 179 -3 201 -5
220 -22z m-369 -616 l0 -320 -175 0 c-96 0 -175 3 -175 6 0 4 55 148 122 320
l122 314 53 0 53 0 0 -320z m388 6 c67 -172 122 -316 122 -320 0 -3 -79 -6
-175 -6 l-175 0 0 320 0 320 53 0 53 0 122 -314z"/>
<path d="M931 4549 c-189 -37 -351 -151 -446 -313 -24 -41 -31 -46 -83 -56
-195 -40 -343 -115 -381 -192 -26 -55 -26 -80 0 -135 37 -77 186 -153 381
-193 52 -10 59 -15 83 -56 47 -81 123 -161 200 -213 309 -206 721 -109 911
215 23 39 30 44 82 54 111 23 241 71 300 111 63 41 102 99 102 149 0 50 -39
108 -102 149 -59 40 -189 88 -300 111 -52 10 -59 15 -82 54 -68 117 -180 218
-299 270 -108 48 -257 66 -366 45z m195 -160 c192 -35 349 -193 384 -389 11
-63 7 -173 -8 -197 -8 -13 -151 -29 -352 -38 -120 -6 -372 5 -518 22 -63 7
-67 16 -65 143 2 182 103 341 267 419 98 47 187 59 292 40z m-721 -469 c0 -55
-1 -100 -3 -100 -20 0 -193 66 -212 80 l-25 20 25 19 c20 16 186 80 210 81 3
0 5 -45 5 -100z m1368 70 c51 -17 103 -40 117 -50 l25 -20 -25 -20 c-19 -14
-192 -80 -212 -80 -2 0 -3 45 -3 100 0 55 1 100 3 100 2 0 45 -14 95 -30z
m-394 -406 c-83 -87 -210 -138 -339 -138 -125 0 -257 52 -333 132 l-29 30 264
-5 c213 -3 366 2 462 16 6 0 -6 -15 -25 -35z"/>
<path d="M282 3270 c-28 -12 -42 -47 -42 -106 l0 -44 -47 0 c-27 0 -59 -6 -72
-13 -32 -16 -46 -60 -31 -96 14 -35 47 -51 105 -51 l45 0 0 -45 c0 -58 16 -91
51 -106 22 -9 36 -9 58 0 35 15 51 48 51 106 l0 45 45 0 c58 0 91 16 106 51 9
22 9 36 0 58 -15 35 -48 51 -106 51 l-45 0 0 45 c0 55 -15 90 -47 104 -28 13
-40 13 -71 1z"/>
</g>
</svg>
