<?xml version="1.0" encoding="iso-8859-1"?>
<!-- Uploaded to: SVG Repo, www.svgrepo.com, Generator: SVG Repo Mixer Tools -->
<!DOCTYPE svg PUBLIC "-//W3C//DTD SVG 1.1//EN" "http://www.w3.org/Graphics/SVG/1.1/DTD/svg11.dtd">
<svg fill="#000000" version="1.1" id="Capa_1" xmlns="http://www.w3.org/2000/svg" xmlns:xlink="http://www.w3.org/1999/xlink" 
	 width="800px" height="800px" viewBox="0 0 53.646 53.646"
	 xml:space="preserve">
<g>
	<g>
		<path d="M11.474,24.416c0,1.24,0.249,2.397,0.676,3.375c0.23,0.527,0.433,0.661,0.397,0.334c-0.021-0.193-0.033-0.392-0.033-0.595
			c0-2.376,1.278-4.301,2.853-4.301c1.575,0,2.854,1.925,2.854,4.301c0,0.668-0.104,1.297-0.289,1.859
			c-0.179,0.547-0.007,0.722,0.405,0.321c1.179-1.146,1.958-3.09,1.958-5.293c0-3.517-1.979-6.376-4.41-6.376
			C13.452,18.038,11.474,20.898,11.474,24.416z"/>
		<path d="M33.35,24.416c0,1.24,0.248,2.397,0.676,3.375c0.229,0.527,0.432,0.661,0.396,0.334c-0.021-0.193-0.032-0.392-0.032-0.595
			c0-2.376,1.277-4.301,2.852-4.301c1.575,0,2.854,1.925,2.854,4.301c0,0.668-0.104,1.297-0.289,1.859
			c-0.179,0.547-0.007,0.722,0.406,0.321c1.178-1.146,1.957-3.09,1.957-5.293c0-3.517-1.978-6.376-4.408-6.376
			C35.327,18.038,33.35,20.898,33.35,24.416z"/>
		<path d="M26.823,52.128c14.816,0,26.823-5.489,26.823-25.305c0-19.096-12.007-25.305-26.823-25.305C12.008,1.518,0,7.727,0,26.823
			C0,46.639,12.008,52.128,26.823,52.128z M15.885,32.866c-3.578,0-6.486-3.79-6.486-8.451s2.909-8.452,6.486-8.452
			c3.576,0,6.486,3.792,6.486,8.452C22.371,29.076,19.461,32.866,15.885,32.866z M37.761,32.866c-3.579,0-6.486-3.79-6.486-8.451
			s2.909-8.452,6.486-8.452c3.576,0,6.485,3.792,6.485,8.452C44.246,29.076,41.337,32.866,37.761,32.866z M31.604,9.687
			c6.81-3.02,12.277,0.781,12.509,0.944c0.513,0.365,0.633,1.076,0.269,1.588c-0.366,0.513-1.073,0.634-1.59,0.267
			c-0.045-0.028-4.624-3.215-10.262-0.717c-0.324,0.145-0.678,0.124-0.973-0.022c-0.229-0.115-0.419-0.307-0.53-0.557
			C30.77,10.614,31.03,9.941,31.604,9.687z M27.026,34.263c2.956,0,5.351,3.188,5.351,7.117c0,3.931-2.396,7.118-5.351,7.118
			c-2.956,0-5.352-3.188-5.352-7.118C21.675,37.449,24.07,34.263,27.026,34.263z M9.531,10.631
			c0.231-0.163,5.699-3.964,12.509-0.944c0.573,0.254,0.834,0.928,0.579,1.503c-0.112,0.25-0.302,0.442-0.53,0.557
			c-0.295,0.147-0.65,0.167-0.975,0.022c-5.636-2.498-10.216,0.688-10.261,0.717c-0.517,0.369-1.225,0.246-1.59-0.267
			C8.899,11.707,9.019,10.996,9.531,10.631z"/>
	</g>
</g>
</svg>